<svg width="185" height="48" viewBox="0 0 185 48" fill="none" xmlns="http://www.w3.org/2000/svg">
<path d="M14.4352 16.2948C14.8071 16.5226 15.2725 16.7112 15.818 16.8551C16.6458 17.0735 17.5162 17.3451 18.2675 18.042C18.3062 18.0782 18.3449 18.1131 18.3836 18.1484L21.743 10.8753L25.9316 19.9429C26.3405 19.8539 26.7659 19.8096 27.2226 19.8096C28.083 19.8096 28.893 19.9646 29.676 20.114C30.1919 20.2128 30.6799 20.3056 31.141 20.3456L21.7435 0L14.2651 16.1909L14.4352 16.2948Z" fill="black"/>
<path d="M32.7252 34.6497L38.4649 47.0758H43.4843L43.4873 47.0741L39.5976 38.6532C38.0856 36.175 35.6062 34.7118 32.7252 34.6497Z" fill="black"/>
<path d="M0.223585 47.0741H0L0.0626387 47.0145L0.223585 47.0741Z" fill="black"/>
<path d="M41.6922 32.1145L41.7517 32.1898C40.9966 30.6998 38.9078 30.2673 38.602 28.4366C38.344 26.8895 37.3401 26.1692 35.8746 25.8639C34.0263 25.4795 32.5943 24.5782 31.9575 22.7306C31.8026 22.2806 31.6182 21.8084 31.0518 21.762C29.3584 21.6232 27.6411 20.9101 25.982 21.3938C22.5238 22.4023 19.7473 21.3708 17.2704 19.071C16.7532 18.5908 16.1003 18.3983 15.4413 18.2242C14.7501 18.042 14.1581 17.7981 13.667 17.4971L0.0626387 47.0146L0 47.0742H0.223585L5.02197 47.0759L7.9773 40.6678C7.99122 40.6423 8.00471 40.6172 8.01602 40.5925C8.01688 40.5874 8.01819 40.5827 8.01906 40.5784L8.06038 40.4882C8.24178 40.2417 8.92297 40.0565 9.17788 39.8164C11.8653 37.2807 15.4148 36.726 18.8121 35.8609C20.2119 35.505 21.6926 35.3398 22.3333 33.8527C23.1968 31.8505 23.8871 31.3256 25.5253 32.49C27.2674 33.7293 28.615 33.7344 30.7478 33.3785C35.4348 32.596 39.6916 34.9098 41.5904 39.3821C41.7109 39.6652 41.7009 40.0744 42.5521 40.1684C41.6082 37.4744 42.1176 34.7681 41.6922 32.1145Z" fill="#27AAE2"/>
<g clip-path="url(#clip0_154_2007)">
<path d="M86.026 16.4613C86.6243 15.9489 87.0243 15.3578 87.3132 14.5988C87.5986 13.8486 87.6739 13.0827 87.708 12.4321C87.7781 11.1415 87.4722 9.94712 86.8243 8.9783C86.1765 8.00949 85.2004 7.2855 84.0005 6.88153C82.9988 6.54577 81.8877 6.38138 80.6005 6.37963C80.2091 6.37963 79.8194 6.37963 79.4279 6.37963C78.9955 6.37963 78.563 6.37963 78.1305 6.37963C77.6981 6.37963 77.2656 6.37963 76.8348 6.37963C75.6759 6.37963 74.3033 6.37963 72.929 6.36914H72.9119C72.7529 6.36914 72.2691 6.36914 71.9016 6.74687C71.5324 7.12461 71.5341 7.61776 71.5341 7.80488C71.5444 14.2194 71.5444 20.1879 71.5341 26.0533C71.5341 26.2439 71.5341 26.7475 71.905 27.1288C72.276 27.51 72.7717 27.51 72.9341 27.51H72.9529C74.1768 27.5013 75.4964 27.4978 77.1049 27.4978C78.11 27.4978 79.1168 27.4978 80.1219 27.5013H80.8894H80.9065C81.6706 27.5013 82.4364 27.4383 83.2466 27.3072C86.2654 26.8192 88.0927 24.9516 88.3901 22.0469C88.6482 19.5356 87.8004 17.577 86.0278 16.4613H86.026ZM76.0178 18.8536C76.281 18.8536 76.5682 18.8536 76.8998 18.8536H77.734C78.0348 18.8536 78.3476 18.8536 78.6758 18.8536C78.8399 18.8606 79.0194 18.8641 79.2245 18.8641C79.4296 18.8641 79.6518 18.8606 79.8621 18.8571C80.0792 18.8536 80.3048 18.8501 80.5288 18.8501C80.951 18.8501 81.5082 18.8606 82.0552 18.948C83.1236 19.1177 83.7441 19.6143 83.8962 20.424C84.0381 21.1725 83.9458 21.7793 83.6261 22.2252C83.1936 22.8268 82.4108 23.0332 81.8296 23.1014C81.2501 23.1678 80.6621 23.1748 80.0108 23.1748H79.8809H79.7664H78.7972C78.4057 23.1748 78.0143 23.1748 77.6211 23.1748C77.0075 23.1748 76.4913 23.1748 76.0178 23.1748C76.0246 21.7286 76.0246 20.2806 76.0178 18.8536ZM76.0178 10.7131C76.134 10.7131 76.2519 10.7131 76.3767 10.7131C76.7887 10.7131 77.2075 10.7096 77.6109 10.7061C78.0109 10.7026 78.4228 10.6991 78.8279 10.6991C79.8211 10.6991 80.5766 10.7236 81.274 10.7778C81.4074 10.7883 81.568 10.8215 81.7219 10.853C82.38 10.9911 82.8347 11.2639 83.0723 11.6662C83.3304 12.1051 83.3594 12.7469 83.1526 13.4744C83.0244 13.9256 82.7441 14.3715 81.568 14.5639C81.192 14.6251 80.7817 14.6531 80.2399 14.6531C80.0091 14.6531 79.7766 14.6478 79.551 14.6443C79.3322 14.6391 79.1066 14.6356 78.8895 14.6356C78.7083 14.6356 78.5493 14.6391 78.4023 14.6461C78.0878 14.6461 77.7869 14.6461 77.4998 14.6461C77.2246 14.6461 76.9596 14.6461 76.6998 14.6461C76.44 14.6461 76.2229 14.6461 76.016 14.6461C76.0212 13.4394 76.0212 12.1418 76.016 10.7148L76.0178 10.7131Z" fill="black"/>
<path d="M184.878 25.5969C184.878 25.4535 184.878 25.3083 184.878 25.1649C184.87 20.6549 184.87 16.0679 184.871 11.6312C184.871 10.3756 184.871 9.11999 184.871 7.86438C184.871 7.83115 184.871 7.79617 184.87 7.7612C184.87 7.74896 184.87 7.73672 184.87 7.72447C184.916 7.25231 184.741 6.94277 184.586 6.76615C184.429 6.58603 184.14 6.37268 183.658 6.37268C183.646 6.37268 183.632 6.37268 183.62 6.37268C183.541 6.37268 183.461 6.37617 183.381 6.37792C183.147 6.38317 182.928 6.38841 182.706 6.38841C182.461 6.38841 182.251 6.38142 182.061 6.36918C181.993 6.36393 181.935 6.36218 181.877 6.36218C181.456 6.36218 181.116 6.49334 180.865 6.75041C180.511 7.11415 180.473 7.58282 180.475 7.9046C180.492 11.7082 180.49 15.5747 180.487 19.3293C180.06 18.7242 179.634 18.1209 179.208 17.5193L177.08 14.5045C175.338 12.0387 173.598 9.57117 171.858 7.10541L171.832 7.07043C171.701 6.87982 171.349 6.37093 170.627 6.37093C170.608 6.37093 170.59 6.37093 170.569 6.37093C170.284 6.38142 169.981 6.38492 169.672 6.38492C169.362 6.38492 169.051 6.37967 168.721 6.37093C168.703 6.37093 168.687 6.37093 168.672 6.37093C168.205 6.37093 167.92 6.57029 167.761 6.73642C167.41 7.10541 167.424 7.57233 167.429 7.72622C167.438 8.048 167.436 8.36977 167.434 8.71078C167.434 8.85593 167.432 9.00282 167.432 9.14797C167.432 10.3057 167.432 11.4633 167.432 12.6193C167.432 17.0034 167.434 21.5363 167.421 25.9939C167.421 26.3104 167.46 26.7721 167.809 27.1306C168.055 27.3841 168.388 27.5118 168.795 27.5118C168.856 27.5118 168.921 27.5083 168.991 27.503C169.207 27.4856 169.426 27.4768 169.646 27.4768C169.867 27.4768 170.091 27.4856 170.311 27.503C170.373 27.5083 170.431 27.51 170.487 27.51C170.882 27.51 171.205 27.3841 171.448 27.1358C171.827 26.7476 171.826 26.2264 171.826 26.0306C171.814 22.3582 171.815 18.6246 171.815 15.0133C171.815 14.849 171.815 14.6846 171.815 14.5202C172.155 15.0011 172.494 15.4785 172.827 15.9507C175.119 19.1912 177.489 22.54 179.772 25.8645C179.825 25.9431 179.921 26.0743 179.94 26.0988C179.94 26.0988 179.942 26.1023 179.943 26.1023C179.967 26.1338 180.03 26.2264 180.075 26.2947C180.078 26.2981 180.08 26.3034 180.083 26.3069L180.658 27.1376C180.837 27.3964 181.128 27.5503 181.437 27.5503H183.924C184.453 27.5503 184.88 27.1131 184.88 26.5727V26.0271C184.88 25.8802 184.88 25.7368 184.88 25.5934L184.878 25.5969Z" fill="black"/>
<path d="M155.404 6.07367C155.036 6.04219 154.672 6.0282 154.318 6.0282C151.226 6.0282 148.624 7.19113 146.589 9.48377C144.918 11.3637 144.021 13.735 143.924 16.5296C143.831 19.1352 144.462 21.4593 145.797 23.4372C147.659 26.1968 150.318 27.7077 153.703 27.928C153.966 27.9455 154.231 27.9543 154.491 27.9543C157.166 27.9543 159.501 27.0397 161.433 25.2384C163.641 23.1766 164.79 20.4416 164.844 17.1067C164.844 17.0979 164.844 17.0892 164.844 17.0787C164.812 13.9151 163.896 11.3829 162.043 9.33337C160.289 7.39224 158.055 6.29576 155.405 6.07367H155.404ZM158.807 21.4891C157.686 22.8496 156.257 23.5404 154.554 23.5404C154.132 23.5404 153.686 23.4984 153.231 23.4145C151.081 23.021 149.65 21.7479 148.855 19.5234C148.575 18.7417 148.443 17.9058 148.452 16.9702C148.481 14.6601 149.214 12.9376 150.691 11.7117C151.691 10.881 153.009 10.4229 154.402 10.4229C156.624 10.4229 159.463 11.7309 160.154 15.4208C160.602 17.8149 160.149 19.8575 158.807 21.4873V21.4891Z" fill="black"/>
<path d="M143.033 25.8662L138.11 19.5969C140.348 18.6455 141.664 16.8373 141.937 14.3138C142.078 13.0145 141.953 11.8271 141.568 10.7848C141.146 9.64463 140.413 8.67056 139.389 7.89236C138.045 6.87108 136.44 6.39192 134.341 6.38492C133.792 6.38317 133.244 6.38317 132.693 6.38317C132.334 6.38317 131.974 6.38317 131.615 6.38317C131.256 6.38317 130.897 6.38317 130.538 6.38317C129.657 6.38317 128.615 6.38317 127.557 6.37268H127.533C127.37 6.37268 126.878 6.37268 126.507 6.75391C126.134 7.13689 126.136 7.64229 126.136 7.8329C126.146 11.3077 126.145 14.8402 126.145 18.2573C126.145 19.1702 126.145 20.083 126.145 20.9941C126.145 21.4313 126.145 21.8685 126.145 22.3057C126.145 23.5543 126.148 24.8467 126.138 26.1145C126.138 26.2947 126.133 26.7703 126.495 27.1446C126.731 27.3876 127.045 27.5101 127.43 27.5101C127.461 27.5101 127.492 27.5101 127.526 27.5083C127.82 27.4943 128.104 27.4873 128.372 27.4873C128.64 27.4873 128.909 27.4943 129.162 27.5083C129.21 27.5118 129.254 27.5118 129.297 27.5118C129.7 27.5118 130.027 27.3859 130.269 27.1358C130.644 26.7476 130.639 26.2282 130.637 26.0586C130.625 24.8956 130.625 23.7117 130.627 22.5663C130.627 21.8878 130.627 21.1917 130.625 20.4975C131.045 20.5027 131.418 20.5045 131.774 20.5045C132.344 20.5045 132.864 20.4992 133.362 20.487C133.367 20.4922 133.372 20.4992 133.377 20.5062C134.975 22.6205 136.602 24.747 138.175 26.8036C138.182 26.8123 138.187 26.8228 138.194 26.8315C138.298 26.9959 138.618 27.4943 139.283 27.4961C139.756 27.4978 140.23 27.4978 140.714 27.4978H141.493H142.325C142.693 27.4978 143.028 27.2827 143.187 26.9435C143.346 26.6042 143.3 26.202 143.071 25.9099L143.037 25.8662H143.033ZM130.627 14.445C130.627 14.1372 130.627 13.8312 130.627 13.5234V12.6543C130.627 12.0177 130.627 11.3637 130.627 10.7131C130.639 10.7131 130.651 10.7131 130.662 10.7131C131.054 10.7131 131.45 10.7079 131.832 10.7009C132.208 10.6956 132.596 10.6886 132.974 10.6886C133.784 10.6886 134.403 10.7166 134.98 10.7778C135.985 10.8845 136.801 11.4651 137.216 12.3692C137.633 13.2751 137.544 14.3313 136.982 15.1952C136.491 15.9472 135.726 16.3144 134.57 16.3529C134.025 16.3704 133.44 16.3791 132.673 16.3791C132.351 16.3791 132.03 16.3791 131.71 16.3774C131.387 16.3774 131.062 16.3756 130.739 16.3756C130.702 16.3756 130.664 16.3756 130.627 16.3756C130.63 15.7268 130.628 15.0781 130.627 14.445Z" fill="black"/>
<path d="M123.268 23.5089C122.89 23.0944 122.376 23.0944 122.181 23.0944H122.167C120.687 23.1014 119.182 23.1014 117.726 23.1014C116.278 23.1014 114.786 23.1014 113.309 23.1084C113.323 21.6132 113.323 20.2457 113.309 18.9498C114.74 18.9603 116.184 18.9603 117.584 18.9603C118.714 18.9603 119.883 18.9603 121.03 18.9656H121.044C121.21 18.9656 121.717 18.9656 122.087 18.5651C122.331 18.2993 122.44 17.9425 122.415 17.5053C122.386 17.0244 122.386 16.5925 122.415 16.185C122.43 15.9752 122.47 15.4208 122.075 14.9871C121.678 14.5517 121.119 14.5517 120.935 14.5517H120.904C119.497 14.5657 118.068 14.5674 116.723 14.5674H116.236H115.748C115.005 14.5674 114.162 14.5674 113.313 14.5709C113.328 13.1334 113.326 11.904 113.311 10.7691C114.877 10.7778 116.459 10.7778 117.993 10.7796C119.299 10.7796 120.647 10.7796 121.974 10.7866H121.986C122.152 10.7866 122.654 10.7866 123.022 10.3879C123.389 9.99088 123.36 9.49248 123.352 9.3281C123.323 8.81921 123.323 8.32431 123.352 7.85564C123.362 7.6895 123.393 7.18061 123.022 6.7784C122.651 6.37443 122.152 6.37443 121.964 6.37443H121.955C119.958 6.38142 117.991 6.38317 116.104 6.38317C114.112 6.38317 112.14 6.37968 110.243 6.37268H110.232C110.049 6.37268 109.566 6.37268 109.193 6.75566C108.82 7.14039 108.822 7.64054 108.824 7.82941C108.836 10.157 108.834 12.5266 108.834 14.8157C108.834 15.5275 108.834 16.2392 108.834 16.951C108.834 17.6627 108.834 18.3028 108.834 18.9796C108.834 21.3194 108.834 23.7415 108.827 26.1198C108.827 26.2982 108.825 26.7721 109.186 27.1428C109.424 27.3859 109.743 27.5101 110.138 27.5101C110.157 27.5101 110.178 27.5101 110.198 27.5101C110.507 27.5013 110.846 27.4978 111.261 27.4978C111.501 27.4978 111.738 27.4978 111.978 27.4996C112.219 27.4996 112.461 27.5013 112.702 27.5013C113.413 27.5013 114.124 27.5013 114.837 27.5013C115.548 27.5013 116.259 27.5013 116.971 27.5013C118.41 27.5013 120.305 27.5013 122.198 27.5101H122.21C122.398 27.5101 122.9 27.5101 123.273 27.1026C123.519 26.8333 123.63 26.4713 123.603 26.0236C123.572 25.5427 123.572 25.067 123.603 24.6088C123.634 24.1542 123.521 23.7852 123.271 23.5106L123.268 23.5089Z" fill="black"/>
<path d="M69.1958 24.8608C68.8026 23.9462 68.4197 23.0561 68.0368 22.1642L66.8625 19.4344C65.16 15.4769 63.401 11.383 61.6746 7.35561C61.5703 7.11078 61.2507 6.36755 60.3156 6.36755C60.2832 6.36755 60.249 6.36755 60.2148 6.37105C59.943 6.38679 59.661 6.39379 59.3721 6.39379C59.0832 6.39379 58.796 6.38679 58.4969 6.37105C58.4593 6.3693 58.4251 6.36755 58.3892 6.36755C57.9277 6.36755 57.3038 6.54068 56.9516 7.3626C55.4218 10.9336 53.8577 14.5605 52.3449 18.0686L51.2749 20.5483C50.7262 21.8197 50.1775 23.091 49.6202 24.3851L48.8698 26.1286C48.7399 26.4312 48.7672 26.7792 48.9433 27.0572C49.1194 27.3335 49.4202 27.5014 49.7433 27.5014C49.9911 27.5014 50.2339 27.5014 50.4715 27.4997C50.6988 27.4997 50.921 27.4979 51.1415 27.4979C51.533 27.4979 51.8475 27.5014 52.1347 27.5102C52.1535 27.5102 52.1723 27.5102 52.1911 27.5102C52.6372 27.5102 53.2355 27.344 53.5603 26.5483C53.815 25.924 54.0799 25.2875 54.3363 24.6737C54.5808 24.0878 54.8337 23.4845 55.0799 22.8829C56.4969 22.8899 57.9089 22.8917 59.2832 22.8917C60.6575 22.8917 62.1173 22.8882 63.4985 22.8812C63.9309 23.9497 64.3771 25.0252 64.8095 26.0674L65.0266 26.5903C65.0266 26.5903 65.0301 26.6008 65.0318 26.6061C65.2967 27.4122 65.9223 27.4997 66.1787 27.4997C66.589 27.4997 66.9941 27.4997 67.4061 27.4997H68.1189H68.8658C69.1889 27.4997 69.4898 27.3335 69.6658 27.0572C69.8419 26.7809 69.8709 26.4329 69.741 26.1304L69.1975 24.8643L69.1958 24.8608ZM61.7925 18.6229H56.767L59.2866 12.6491L61.2968 17.4425L61.7925 18.6247V18.6229Z" fill="black"/>
<path d="M102.178 15.5607C101.195 15.1707 100.191 14.9626 99.2206 14.7633C98.9317 14.7038 98.6326 14.6426 98.342 14.5779C98.1437 14.5342 97.9437 14.4922 97.7522 14.452C96.9164 14.2771 96.1266 14.111 95.4309 13.7455C94.8344 13.4325 94.5865 12.962 94.6019 12.1734C94.6156 11.5333 94.8908 11.1171 95.4942 10.8251C95.6617 10.7446 95.9095 10.6327 96.1318 10.5907C96.8548 10.4578 97.5676 10.3896 98.2531 10.3896C100.007 10.3896 101.675 10.8373 103.208 11.7204C103.398 11.8306 103.632 11.9408 103.921 11.9408C104.133 11.9408 104.838 11.8638 105.031 10.8845L105.06 10.7341C105.152 10.2654 105.238 9.82126 105.371 9.41205C105.641 8.57264 105.338 7.87138 104.538 7.4884C102.462 6.4951 100.332 5.99146 98.2103 5.99146C97.0429 5.99146 95.86 6.1436 94.6942 6.44613C93.4259 6.7749 92.3934 7.35025 91.6293 8.15993C90.7934 9.04481 90.2977 10.178 90.1576 11.5316C89.8191 14.7825 91.0755 16.9895 93.8891 18.0929C94.7181 18.4182 95.5574 18.6018 96.3694 18.782C96.5967 18.8327 96.8326 18.8834 97.0599 18.9376C97.3728 19.011 97.689 19.0775 97.9932 19.1404C98.9043 19.3293 99.7641 19.5094 100.54 19.8819C101.361 20.2754 101.607 20.7213 101.557 21.7199C101.532 22.234 101.371 22.7639 100.381 23.1556C100.096 23.2675 99.8103 23.3445 99.5334 23.3795C98.9402 23.4564 98.3505 23.4949 97.7813 23.4949C95.8121 23.4949 93.9455 23.0245 92.2344 22.0976C92.0652 22.0067 91.8361 21.9018 91.5609 21.9018C91.349 21.9018 90.6464 21.977 90.4567 22.951L90.4533 22.972C90.3541 23.4861 90.2601 23.9705 90.1148 24.4217C89.961 24.9026 89.8636 25.7893 90.937 26.3279C92.272 26.9977 93.7592 27.4523 95.366 27.6849V28.1256C95.366 28.666 95.7933 29.1032 96.3215 29.1032H99.3624C99.8906 29.1032 100.318 28.666 100.318 28.1256V27.6552C100.846 27.5625 101.34 27.4384 101.814 27.281C103.137 26.8385 104.183 26.1198 104.92 25.144C105.665 24.1577 106.063 22.9545 106.106 21.5677C106.193 18.6525 104.872 16.631 102.178 15.5607Z" fill="black"/>
</g>
<path d="M55.0307 31.2235V32.1835H52.7231V38.8611H51.6974V32.184H49.4006V31.2239H55.0307V31.2235Z" fill="black"/>
<path d="M58.6533 29.8488C58.6533 29.4669 58.9656 29.1613 59.3558 29.1613C59.746 29.1613 60.047 29.4669 60.047 29.8488C60.047 30.2307 59.7238 30.5253 59.3558 30.5253C58.9652 30.5253 58.6533 30.2307 58.6533 29.8488ZM58.843 31.2235H59.8796V38.8611H58.843V31.2235Z" fill="black"/>
<path d="M65.0742 37.8571C64.3047 37.0934 63.9258 36.1551 63.9258 35.0422C63.9258 33.9294 64.3047 32.9911 65.0742 32.2273C65.8433 31.4635 66.8246 31.0817 68.006 31.0817C69.4328 31.0817 70.7038 31.802 71.3729 32.9366L70.4698 33.4496C70.024 32.6096 69.0761 32.0638 68.006 32.0638C67.103 32.0638 66.3674 32.3474 65.7989 32.9149C65.2304 33.4824 64.9515 34.1912 64.9515 35.0427C64.9515 35.8826 65.2304 36.5919 65.7989 37.1594C66.3674 37.7269 67.1034 38.0104 68.006 38.0104C69.0761 38.0104 70.024 37.4646 70.4698 36.6357L71.3729 37.1377C71.0497 37.7052 70.5812 38.1632 69.9791 38.5017C69.3771 38.8397 68.7194 39.0036 68.006 39.0036C66.8246 39.0028 65.8437 38.6209 65.0742 37.8571Z" fill="black"/>
<path d="M80.5029 38.8611L79.8674 37.148H76.3557L75.7202 38.8611H74.6166L77.5263 31.2235H78.6968L81.6065 38.8611H80.5029ZM76.7124 36.199H79.5107L78.1061 32.4347L76.7124 36.199Z" fill="black"/>
<path d="M89.9448 38.8611L88.1944 35.9368H86.3549V38.8611H85.3183V31.2235H88.4398C89.1088 31.2235 89.6773 31.4526 90.1567 31.9217C90.636 32.3798 90.8701 32.9362 90.8701 33.591C90.8701 34.0819 90.7139 34.5404 90.4133 34.944C90.1123 35.3476 89.733 35.6422 89.2536 35.8056L91.0932 38.8607H89.9448V38.8611ZM86.3553 32.1729V35.0206H88.4398C88.83 35.0206 89.1531 34.8788 89.4207 34.6059C89.6995 34.3224 89.833 33.9839 89.833 33.5914C89.833 33.1989 89.6995 32.8604 89.4207 32.5875C89.1531 32.3147 88.83 32.1729 88.4398 32.1729H86.3553Z" fill="black"/>
<path d="M94.5261 34.5624H101.516C101.427 33.9298 101.148 33.384 100.68 32.9259C100.111 32.3478 99.398 32.0638 98.5394 32.0638C97.6811 32.0638 96.9673 32.3474 96.3875 32.9259L95.6741 32.2384C96.4544 31.4635 97.4132 31.0817 98.5394 31.0817C99.6651 31.0817 100.624 31.4635 101.404 32.2384C102.196 33.0021 102.586 33.9404 102.586 35.0427C102.586 36.1444 102.196 37.0721 101.404 37.8465C100.624 38.6213 99.6651 39.0032 98.5394 39.0032C97.4132 39.0032 96.4544 38.6213 95.6741 37.8465C94.8937 37.0717 94.5035 36.1444 94.5035 35.0427C94.5039 34.8787 94.5039 34.7148 94.5261 34.5624ZM101.516 35.5114H95.5627C95.6519 36.144 95.9307 36.6898 96.3875 37.159C96.9673 37.7264 97.6807 38.01 98.5394 38.01C99.3976 38.01 100.111 37.7264 100.68 37.159C101.148 36.6898 101.427 36.1444 101.516 35.5114Z" fill="black"/>
<path d="M111.616 31.2235V32.1835H109.308V38.8611H108.282V32.184H105.986V31.2239H111.616V31.2235Z" fill="black"/>
<path d="M128.304 31.2234V38.861H127.278V32.8927L124.725 37.0496H124.591L122.038 32.9034V38.8606H121.001V31.223H122.172L124.658 35.2602L127.133 31.223H128.304V31.2234Z" fill="black"/>
<path d="M132.372 34.5624H139.362C139.273 33.9298 138.994 33.384 138.526 32.9259C137.957 32.3478 137.244 32.0638 136.385 32.0638C135.527 32.0638 134.813 32.3474 134.234 32.9259L133.52 32.2384C134.301 31.4635 135.26 31.0817 136.385 31.0817C137.512 31.0817 138.47 31.4635 139.25 32.2384C140.042 33.0021 140.432 33.9404 140.432 35.0427C140.432 36.1444 140.042 37.0721 139.25 37.8465C138.47 38.6213 137.511 39.0032 136.385 39.0032C135.259 39.0032 134.301 38.6213 133.52 37.8465C132.74 37.0717 132.35 36.1444 132.35 35.0427C132.35 34.8787 132.35 34.7148 132.372 34.5624ZM139.362 35.5114H133.409C133.498 36.144 133.777 36.6898 134.234 37.159C134.814 37.7264 135.527 38.01 136.385 38.01C137.244 38.01 137.957 37.7264 138.526 37.159C138.994 36.6898 139.273 36.1444 139.362 35.5114Z" fill="black"/>
<path d="M149.094 38.8611L147.343 35.9368H145.504V38.8611H144.467V31.2235H147.589C148.258 31.2235 148.826 31.4526 149.305 31.9217C149.785 32.3798 150.019 32.9362 150.019 33.591C150.019 34.0819 149.863 34.5404 149.562 34.944C149.261 35.3476 148.882 35.6422 148.402 35.8056L150.242 38.8607H149.094V38.8611ZM145.504 32.1729V35.0206H147.589C147.979 35.0206 148.302 34.8788 148.57 34.6059C148.849 34.3224 148.982 33.9839 148.982 33.5914C148.982 33.1989 148.848 32.8604 148.57 32.5875C148.302 32.3147 147.979 32.1729 147.589 32.1729H145.504Z" fill="black"/>
<path d="M159.74 38.8611H158.469L155.102 35.1951V38.8611H154.065V31.2235H155.102V34.6715L158.357 31.2235H159.628L156.183 34.9333L159.74 38.8611Z" fill="black"/>
<path d="M163.062 34.5624H170.051C169.962 33.9298 169.683 33.384 169.215 32.9259C168.647 32.3478 167.934 32.0638 167.075 32.0638C166.217 32.0638 165.503 32.3474 164.923 32.9259L164.21 32.2384C164.99 31.4635 165.949 31.0817 167.075 31.0817C168.201 31.0817 169.159 31.4635 169.94 32.2384C170.731 33.0021 171.122 33.9404 171.122 35.0427C171.122 36.1444 170.731 37.0721 169.94 37.8465C169.159 38.6213 168.201 39.0032 167.075 39.0032C165.949 39.0032 164.99 38.6213 164.21 37.8465C163.43 37.0717 163.039 36.1444 163.039 35.0427C163.039 34.8787 163.039 34.7148 163.062 34.5624ZM170.051 35.5114H164.099C164.188 36.144 164.467 36.6898 164.923 37.159C165.503 37.7264 166.217 38.01 167.075 38.01C167.933 38.01 168.647 37.7264 169.215 37.159C169.683 36.6898 169.962 36.1444 170.051 35.5114Z" fill="black"/>
<path d="M175.982 37.9011H179.85V38.8611H174.755V37.9773L178.524 32.1835H174.856V31.2235H179.761V32.0963L175.982 37.9011Z" fill="black"/>
<path d="M183.606 29.8488C183.606 29.4669 183.919 29.1613 184.309 29.1613C184.699 29.1613 185 29.4669 185 29.8488C185 30.2307 184.677 30.5253 184.309 30.5253C183.919 30.5253 183.606 30.2307 183.606 29.8488ZM183.796 31.2235H184.832V38.8611H183.796V31.2235Z" fill="black"/>
<defs>
<clipPath id="clip0_154_2007">
<rect width="136.092" height="23.11" fill="white" transform="translate(48.7878 5.99146)"/>
</clipPath>
</defs>
</svg>
