<svg width="39" height="39" viewBox="0 0 39 39" fill="none" xmlns="http://www.w3.org/2000/svg">
<rect width="39" height="39" fill="white"/>
<rect x="7.6421" y="9.75001" width="24.2432" height="22.1351" rx="1.31757" stroke="#818181" stroke-width="1.58108"/>
<path d="M14.2295 6.85138L14.2295 12.1216" stroke="#818181" stroke-width="2.10811" stroke-linecap="round"/>
<path d="M31.0947 15.2838L7.90554 15.2838" stroke="#818181" stroke-width="2.10811" stroke-linecap="round"/>
<path d="M25.2979 6.85138L25.2979 12.1216" stroke="#818181" stroke-width="2.10811" stroke-linecap="round"/>
<path fill-rule="evenodd" clip-rule="evenodd" d="M18.0143 17.3918H16.2895V19.1167H18.0143V17.3918ZM10.54 20.027H12.2649V21.7518H10.54V20.027ZM10.54 22.6621H12.2649V24.3869H10.54V22.6621ZM12.2649 25.2973H10.54V27.0221H12.2649V25.2973ZM10.54 27.9324H12.2649V29.6572H10.54V27.9324ZM15.1393 20.027H13.4145V21.7518H15.1393V20.027ZM13.4145 22.6621H15.1393V24.3869H13.4145V22.6621ZM15.1393 25.2973H13.4145V27.0221H15.1393V25.2973ZM13.4145 27.9324H15.1393V29.6572H13.4145V27.9324ZM16.2895 20.027H18.0143V21.7518H16.2895V20.027ZM18.0143 22.6621H16.2895V24.3869H18.0143V22.6621ZM16.2895 25.2973H18.0143V27.0221H16.2895V25.2973ZM18.0143 27.9324H16.2895V29.6572H18.0143V27.9324ZM19.1639 17.3918H20.8887V19.1167H19.1639V17.3918ZM20.8887 20.027H19.1639V21.7518H20.8887V20.027ZM19.1639 22.6621H20.8887V24.3869H19.1639V22.6621ZM20.8887 25.2973H19.1639V27.0221H20.8887V25.2973ZM19.1639 27.9324H20.8887V29.6572H19.1639V27.9324ZM23.7637 17.3918H22.0389V19.1167H23.7637V17.3918ZM22.0389 20.027H23.7637V21.7518H22.0389V20.027ZM23.7637 22.6621H22.0389V24.3869H23.7637V22.6621ZM22.0389 25.2973H23.7637V27.0221H22.0389V25.2973ZM23.7637 27.9324H22.0389V29.6572H23.7637V27.9324ZM24.9134 17.3918H26.6382V19.1167H24.9134V17.3918ZM26.6382 20.027H24.9134V21.7518H26.6382V20.027ZM24.9134 22.6621H26.6382V24.3869H24.9134V22.6621ZM26.6382 25.2973H24.9134V27.0221H26.6382V25.2973ZM24.9134 27.9324H26.6382V29.6572H24.9134V27.9324ZM29.5132 17.3918H27.7883V19.1167H29.5132V17.3918ZM27.7883 20.027H29.5132V21.7518H27.7883V20.027ZM29.5132 22.6621H27.7883V24.3869H29.5132V22.6621ZM27.7883 25.2973H29.5132V27.0221H27.7883V25.2973ZM29.5132 27.9324H27.7883V29.6572H29.5132V27.9324Z" fill="#D9D9D9"/>
</svg>
