<svg width="46" height="46" viewBox="0 0 46 46" fill="none" xmlns="http://www.w3.org/2000/svg">
<rect width="46" height="46" fill="white"/>
<rect x="9.01349" y="11.5" width="28.5946" height="26.1081" rx="1.55405" stroke="#818181" stroke-width="1.86486"/>
<path d="M16.7842 8.08105L16.7842 14.2973" stroke="#818181" stroke-width="2.48649" stroke-linecap="round"/>
<path d="M36.6758 18.027L9.32443 18.027" stroke="#818181" stroke-width="2.48649" stroke-linecap="round"/>
<path d="M29.8379 8.08105L29.8379 14.2973" stroke="#818181" stroke-width="2.48649" stroke-linecap="round"/>
<path d="M15.877 24.3351C15.9331 23.2124 16.326 22.348 17.0558 21.7417C17.7968 21.1242 18.7679 20.8155 19.9692 20.8155C20.7887 20.8155 21.4904 20.9614 22.0742 21.2533C22.658 21.534 23.0958 21.9213 23.3877 22.4153C23.6909 22.8981 23.8424 23.4482 23.8424 24.0657C23.8424 24.773 23.6572 25.3736 23.2867 25.8676C22.9274 26.3503 22.4952 26.6759 21.99 26.8443V26.9117C22.6412 27.1138 23.1464 27.473 23.5056 27.9895C23.8761 28.5059 24.0614 29.1683 24.0614 29.9766C24.0614 30.6502 23.9042 31.2509 23.5898 31.7785C23.2867 32.3062 22.832 32.7216 22.2258 33.0247C21.6307 33.3166 20.9122 33.4626 20.0702 33.4626C18.8016 33.4626 17.7687 33.1426 16.9716 32.5027C16.1745 31.8627 15.7535 30.9197 15.7086 29.6735H17.9989C18.0213 30.2236 18.2065 30.6671 18.5546 31.0039C18.9138 31.3295 19.4022 31.4922 20.0197 31.4922C20.5923 31.4922 21.0301 31.3351 21.3332 31.0207C21.6476 30.6951 21.8048 30.2797 21.8048 29.7745C21.8048 29.1009 21.5914 28.6182 21.1648 28.3263C20.7382 28.0344 20.0758 27.8884 19.1777 27.8884H18.6893V25.9518H19.1777C20.7719 25.9518 21.569 25.4185 21.569 24.352C21.569 23.8692 21.423 23.4931 21.1311 23.2237C20.8505 22.9542 20.4407 22.8195 19.9018 22.8195C19.3741 22.8195 18.9644 22.9654 18.6725 23.2573C18.3918 23.538 18.229 23.8973 18.1841 24.3351H15.877ZM25.554 23.2742V21.1018H29.6125V33.3784H27.1875V23.2742H25.554Z" fill="#818181"/>
</svg>
