<svg width="25" height="6" viewBox="0 0 25 6" fill="none" xmlns="http://www.w3.org/2000/svg">
<path fill-rule="evenodd" clip-rule="evenodd" d="M5.64516 2.82258C5.64516 4.38145 4.38145 5.64516 2.82258 5.64516C1.26371 5.64516 0 4.38145 0 2.82258C0 1.26371 1.26371 0 2.82258 0C4.38145 0 5.64516 1.26371 5.64516 2.82258ZM15.3226 2.82258C15.3226 4.38145 14.0589 5.64516 12.5 5.64516C10.9411 5.64516 9.67742 4.38145 9.67742 2.82258C9.67742 1.26371 10.9411 0 12.5 0C14.0589 0 15.3226 1.26371 15.3226 2.82258ZM22.1774 5.64516C23.7363 5.64516 25 4.38145 25 2.82258C25 1.26371 23.7363 0 22.1774 0C20.6186 0 19.3548 1.26371 19.3548 2.82258C19.3548 4.38145 20.6186 5.64516 22.1774 5.64516Z" fill="#5D5D6D"/>
</svg>
