<svg width="64" height="53" viewBox="0 0 64 53" fill="none" xmlns="http://www.w3.org/2000/svg">
<g id="Layer_1" clip-path="url(#clip0_154_2061)">
<path id="Vector" d="M63.6384 15.2927V46.3053C63.6089 46.3576 63.5622 46.4073 63.5499 46.4646C62.7604 50.2911 60.1557 52.4531 56.2966 52.4556C40.1715 52.4606 24.0465 52.4581 7.91895 52.4556C7.40736 52.4556 6.88838 52.4432 6.38663 52.3511C2.93829 51.7142 0.6066 48.8654 0.60168 45.2653C0.591842 35.6991 0.596761 26.1303 0.599221 16.564C0.599221 12.1752 3.55564 9.17223 7.88944 9.16228C10.413 9.15481 12.9365 9.14486 15.46 9.17472C15.9962 9.18218 16.1635 9.04783 16.1463 8.49052C16.1168 7.43562 16.0331 6.36827 16.3135 5.33327C17.1399 2.3054 19.3757 0.561329 22.4846 0.551377C26.9562 0.536449 31.4301 0.543913 35.9017 0.548889C38.0759 0.548889 40.2527 0.514058 42.4245 0.588697C44.8374 0.6708 47.019 2.4721 47.7716 4.78841C48.1676 6.00752 48.1184 7.24653 48.0914 8.48554C48.0791 9.04036 48.239 9.1772 48.7776 9.17223C51.5274 9.14983 54.2772 9.12495 57.0246 9.18964C59.9589 9.25931 62.5661 11.3791 63.363 14.2253C63.4613 14.5786 63.5474 14.9369 63.6409 15.2927H63.6384ZM32.1311 46.38C40.6167 46.3426 47.5208 39.3464 47.5085 30.7928C47.4962 22.2242 40.5552 15.218 32.1065 15.2404C23.6234 15.2628 16.7169 22.259 16.7267 30.8176C16.7366 39.3738 23.707 46.4173 32.1287 46.38H32.1311Z" fill="white"/>
</g>
<defs>
<clipPath id="clip0_154_2061">
<rect width="63.0417" height="51.9167" fill="white" transform="translate(0.597221 0.541626)"/>
</clipPath>
</defs>
</svg>
