<svg width="30" height="30" viewBox="0 0 30 30" fill="none" xmlns="http://www.w3.org/2000/svg">
<mask id="mask0_154_2374" style="mask-type:alpha" maskUnits="userSpaceOnUse" x="5" y="5" width="20" height="20">
<path d="M23.4889 13.7562H9.52643L15.6264 7.65623C16.1139 7.16873 16.1139 6.36873 15.6264 5.88123C15.3929 5.64717 15.0758 5.51562 14.7452 5.51562C14.4145 5.51562 14.0975 5.64717 13.8639 5.88123L5.62643 14.1187C5.13893 14.6062 5.13893 15.3937 5.62643 15.8812L13.8639 24.1187C14.3514 24.6062 15.1389 24.6062 15.6264 24.1187C16.1139 23.6312 16.1139 22.8437 15.6264 22.3562L9.52643 16.2562H23.4889C24.1764 16.2562 24.7389 15.6937 24.7389 15.0062C24.7389 14.3187 24.1764 13.7562 23.4889 13.7562Z" fill="black"/>
</mask>
<g mask="url(#mask0_154_2374)">
<rect width="30" height="30" fill="black"/>
</g>
</svg>
