<svg width="52" height="52" viewBox="0 0 52 52" fill="none" xmlns="http://www.w3.org/2000/svg">
<path id="Vector" d="M44.0925 32.0338C42.8827 30.8825 41.276 30.2414 39.6061 30.2438C37.9362 30.2461 36.3313 30.8917 35.1247 32.0464L31.1311 35.4122C27.8714 34.063 24.9103 32.083 22.4178 29.5859C19.9253 27.0889 17.9504 24.124 16.6067 20.8615L19.9591 16.8796C21.1105 15.6703 21.7538 14.065 21.7562 12.3951C21.7585 10.7252 21.1197 9.11807 19.9717 7.9056C19.9717 7.9056 16.0912 2.86954 16.0263 2.80457C14.8308 1.60109 13.21 0.916353 11.514 0.898315C9.81792 0.880276 8.18289 1.53038 6.96212 2.70816L4.55256 4.8039C-11.6209 22.0099 30.1149 63.7738 47.2962 47.3474L49.207 45.1469C50.4206 43.9291 51.1021 42.2798 51.1021 40.5604C51.1021 38.8409 50.4206 37.1916 49.207 35.9738C49.1379 35.9173 44.0925 32.0359 44.0925 32.0359V32.0338Z" fill="white"/>
</svg>
